<svg width="92" height="92" viewBox="0 0 92 92" fill="none" xmlns="http://www.w3.org/2000/svg">
<path d="M62.4748 30.562C67.87 38.5435 70.5344 47.5464 69.5384 57.9108C69.5342 57.9547 69.5115 57.9949 69.4757 58.0214C65.39 61.04 61.4316 62.8719 57.5287 64.0868C57.4983 64.0961 57.4657 64.0956 57.4357 64.0853C57.4056 64.0751 57.3794 64.0556 57.3609 64.0297C56.4592 62.7674 55.6399 61.4365 54.9221 60.039C54.8809 59.9566 54.9186 59.8575 55.0033 59.8251C56.3045 59.3318 57.5418 58.7406 58.7319 58.0406C58.8256 57.9853 58.8316 57.8501 58.745 57.7852C58.4924 57.5966 58.2422 57.3983 58.0028 57.2C57.958 57.1634 57.8977 57.1562 57.8469 57.1808C50.1205 60.7708 41.6566 60.7708 33.8389 57.1808C33.7881 57.158 33.7278 57.1658 33.6842 57.2018C33.4454 57.4001 33.1946 57.5966 32.9444 57.7852C32.8578 57.8501 32.8649 57.9853 32.9593 58.0406C34.1494 58.7273 35.3867 59.3318 36.686 59.8275C36.7702 59.8599 36.8102 59.9566 36.7684 60.039C36.0662 61.4383 35.2469 62.7692 34.3285 64.0315C34.2885 64.0826 34.2228 64.106 34.1607 64.0868C30.2763 62.8719 26.3179 61.04 22.2322 58.0214C22.1982 57.9949 22.1737 57.9529 22.1701 57.909C21.3377 48.9439 23.0342 39.8665 29.2271 30.5602C29.2421 30.5355 29.2648 30.5163 29.291 30.5049C32.3383 29.0977 35.6028 28.0625 39.0149 27.4713C39.077 27.4617 39.1391 27.4905 39.1713 27.5458C39.5929 28.2968 40.0748 29.26 40.4009 30.0471C43.9974 29.4943 47.6502 29.4943 51.322 30.0471C51.648 29.2768 52.1132 28.2968 52.533 27.5458C52.5479 27.5184 52.5711 27.4964 52.5992 27.483C52.6273 27.4696 52.6589 27.4655 52.6894 27.4713C56.1033 28.0643 59.3679 29.0995 62.4127 30.5049C62.4395 30.5163 62.4616 30.5355 62.4748 30.562ZM42.2293 47.6077C42.2669 44.9574 40.3465 42.7643 37.9359 42.7643C35.5449 42.7643 33.643 44.9382 33.643 47.6077C33.643 50.2766 35.5825 52.4504 37.9359 52.4504C40.3274 52.4504 42.2293 50.2766 42.2293 47.6077ZM58.1025 47.6077C58.1401 44.9574 56.2197 42.7643 53.8097 42.7643C51.4181 42.7643 49.5162 44.9382 49.5162 47.6077C49.5162 50.2766 51.4557 52.4504 53.8097 52.4504C56.2197 52.4504 58.1025 50.2766 58.1025 47.6077Z" fill="#5865F2"/>
</svg>
