<svg width="92" height="92" viewBox="0 0 92 92" fill="none" xmlns="http://www.w3.org/2000/svg">
<path d="M21.6354 66H30.1182V45.3992L18 36.3105V62.3646C18 64.3762 19.6299 66 21.6354 66Z" fill="#4285F4"/>
<path d="M59.2031 66H67.6858C69.6975 66 71.3213 64.3702 71.3213 62.3646V36.3105L59.2031 45.3992" fill="#34A853"/>
<path d="M59.2031 29.6458V45.3994L71.3213 36.3108V31.4635C71.3213 26.9676 66.1892 24.4047 62.5962 27.1009" fill="#FBBC04"/>
<path d="M30.1172 45.3991V29.6455L44.659 40.5519L59.2008 29.6455V45.3991L44.659 56.3055" fill="#EA4335"/>
<path d="M18 31.4635V36.3108L30.1182 45.3994V29.6458L26.7251 27.1009C23.126 24.4047 18 26.9676 18 31.4635Z" fill="#C5221F"/>
</svg>
