<svg width="64" height="64" viewBox="0 0 64 64" fill="none" xmlns="http://www.w3.org/2000/svg">
<path d="M10.52 34.19C15.2095 34.7473 19.5752 36.8661 22.9146 40.2055C26.2539 43.5448 28.3727 47.9105 28.93 52.6C31.2547 51.2598 33.1993 49.3489 34.5798 47.0479C35.9604 44.7469 36.7314 42.1319 36.82 39.45C41.2361 37.8965 45.0923 35.0684 47.9011 31.3233C50.7099 27.5783 52.3451 23.0844 52.6 18.41C52.6 16.3174 51.7687 14.3106 50.2891 12.8309C48.8094 11.3513 46.8026 10.52 44.71 10.52C40.0356 10.7749 35.5417 12.4101 31.7967 15.2189C28.0516 18.0277 25.2235 21.8839 23.67 26.3C20.9881 26.3886 18.3731 27.1596 16.0721 28.5402C13.7711 29.9207 11.8602 31.8653 10.52 34.19" stroke="#5AA6F2" stroke-width="5.26" stroke-linecap="round" stroke-linejoin="round"/>
<path d="M18.41 36.82C15.6728 38.3653 13.4594 40.6929 12.0537 43.5044C10.648 46.3158 10.1139 49.483 10.52 52.6C13.637 53.0061 16.8042 52.472 19.6156 51.0663C22.4271 49.6606 24.7547 47.4472 26.3 44.71" stroke="#5AA6F2" stroke-width="5.26" stroke-linecap="round" stroke-linejoin="round"/>
<path d="M39.45 26.3C40.9025 26.3 42.08 25.1225 42.08 23.67C42.08 22.2175 40.9025 21.04 39.45 21.04C37.9975 21.04 36.82 22.2175 36.82 23.67C36.82 25.1225 37.9975 26.3 39.45 26.3Z" stroke="#5AA6F2" stroke-width="5.26" stroke-linecap="round" stroke-linejoin="round"/>
</svg>
