<svg width="92" height="92" viewBox="0 0 92 92" fill="none" xmlns="http://www.w3.org/2000/svg">
<path d="M46.015 74.03C59.8304 74.03 71.03 62.8304 71.03 49.015C71.03 35.1996 59.8304 24 46.015 24C32.1996 24 21 35.1996 21 49.015C21 62.8304 32.1996 74.03 46.015 74.03Z" fill="#34AADF"/>
<path d="M31.7255 48.4671C31.7255 48.4671 44.1166 43.1955 48.4141 41.3392C50.0615 40.5968 55.6483 38.2208 55.6483 38.2208C55.6483 38.2208 58.2268 37.1814 58.0119 39.7058C57.9402 40.7453 57.3673 44.3834 56.7943 48.3186C55.9347 53.8873 55.0036 59.9757 55.0036 59.9757C55.0036 59.9757 54.8604 61.6834 53.6428 61.9804C52.4252 62.2774 50.4196 60.941 50.0615 60.6439C49.7749 60.4212 44.6896 57.08 42.8274 55.4465C42.326 55.001 41.753 54.1101 42.8989 53.0706C45.4775 50.6204 48.5573 47.5762 50.4196 45.6457C51.2791 44.7547 52.1386 42.6757 48.5573 45.2002C43.472 48.8384 38.4582 52.2538 38.4582 52.2538C38.4582 52.2538 37.3122 52.9963 35.1635 52.328C33.0147 51.6599 30.5078 50.7688 30.5078 50.7688C30.5078 50.7688 28.7889 49.6551 31.7255 48.4671Z" fill="white"/>
</svg>
